<svg xmlns="http://www.w3.org/2000/svg" version="1.1" xmlns:xlink="http://www.w3.org/1999/xlink" xmlns:svgjs="http://svgjs.dev/svgjs" width="2000" height="601" viewBox="0 0 2000 601"><g transform="matrix(1,0,0,1,-1.2121212121212466,-1.9609883512728743)"><svg viewBox="0 0 396 119" data-background-color="#1f2d5a" preserveAspectRatio="xMidYMid meet" height="601" width="2000" xmlns="http://www.w3.org/2000/svg" xmlns:xlink="http://www.w3.org/1999/xlink"><g id="tight-bounds" transform="matrix(1,0,0,1,0.2400000000000091,0.38828221930361906)"><svg viewBox="0 0 395.52 118.22343556139279" height="118.22343556139279" width="395.52"><g><svg viewBox="0 0 596.3530909853428 178.2537197207299" height="118.22343556139279" width="395.52"><g transform="matrix(1,0,0,1,0,24.63564433188091)"><svg viewBox="0 0 395.52 128.98243105696807" height="128.98243105696807" width="395.52"><g id="textblocktransform"><svg viewBox="0 0 395.52 128.98243105696807" height="128.98243105696807" width="395.52" id="textblock"><g><svg viewBox="0 0 395.52 95.64450119712689" height="95.64450119712689" width="395.52"><g transform="matrix(1,0,0,1,0,0)"><svg width="395.52" viewBox="2.15 -35.05 187.94 45.449999999999996" height="95.64450119712689" data-palette-color="#fbfbfb"><path d="M3 0.15L3 0.15Q2.55 0.15 2.35-0.2 2.15-0.55 2.15-0.95L2.15-0.95Q2.2-1.8 2.55-1.9 2.9-2 3.4-2L3.4-2Q5-2 5.65-2.58 6.3-3.15 6.48-4.03 6.65-4.9 6.65-5.85L6.65-5.85 6.65-25.7Q6.65-26.65 6.48-27.53 6.3-28.4 5.65-28.98 5-29.55 3.4-29.55L3.4-29.55Q2.9-29.55 2.55-29.65 2.2-29.75 2.15-30.6L2.15-30.6Q2.15-31 2.35-31.35 2.55-31.7 3-31.7L3-31.7Q4.6-31.65 6.03-31.6 7.45-31.55 8.95-31.55L8.95-31.55 23.4-31.55Q23.95-31.55 24.33-31.3 24.7-31.05 24.7-30.35L24.7-30.35 24.85-23.35Q24.85-22.85 24.38-22.6 23.9-22.35 23.5-22.35L23.5-22.35Q22.95-22.35 22.48-22.58 22-22.8 21.9-23.25L21.9-23.25Q21.6-25.5 21.13-26.88 20.65-28.25 19.73-28.88 18.8-29.5 17.05-29.55L17.05-29.55 11.6-29.55 11.6-16.55 20.55-16.55Q20.95-16.5 21.15-16.15 21.35-15.8 21.35-15.4L21.35-15.4Q21.35-15.05 21.15-14.73 20.95-14.4 20.55-14.4L20.55-14.4 11.6-14.4 11.6-5.85Q11.65-4.9 11.8-4.03 11.95-3.15 12.63-2.58 13.3-2 14.85-2L14.85-2Q15.35-2 15.7-1.9 16.05-1.8 16.1-0.95L16.1-0.95Q16.1-0.55 15.9-0.2 15.7 0.15 15.2 0.15L15.2 0.15Q12 0 9 0L9 0Q7.5 0 6.05 0.03 4.6 0.05 3 0.15ZM28.45 0.15L28.45 0.15Q28.1 0.15 27.87-0.18 27.65-0.5 27.65-0.85L27.65-0.85Q27.75-1.6 28.05-1.68 28.35-1.75 28.85-1.75L28.85-1.75Q30.25-1.75 30.75-2.23 31.25-2.7 31.32-3.5 31.4-4.3 31.4-5.15L31.4-5.15 31.4-16.6Q31.4-17.5 31.32-18.28 31.25-19.05 30.75-19.53 30.25-20 28.85-20L28.85-20Q28.4-20 28.02-20.13 27.65-20.25 27.65-21L27.65-21Q27.65-21.75 28.45-21.9L28.45-21.9Q30.75-22.25 31.97-22.6 33.2-22.95 33.85-23.2 34.5-23.45 35-23.5L35-23.5Q35.4-23.55 35.67-23.35 35.95-23.15 35.95-22.55L35.95-22.55 35.95-5.15Q35.95-4.3 36.02-3.5 36.1-2.7 36.62-2.23 37.15-1.75 38.55-1.75L38.55-1.75Q39-1.75 39.32-1.68 39.65-1.6 39.7-0.85L39.7-0.85Q39.7-0.5 39.5-0.18 39.3 0.15 38.9 0.15L38.9 0.15Q37.45 0.05 36.22 0.03 35 0 33.65 0L33.65 0Q32.3 0 31.1 0.03 29.9 0.05 28.45 0.15ZM33.4-29.05L33.4-29.05Q32-29.05 31.05-29.93 30.1-30.8 30.1-32.1L30.1-32.1Q30.1-33.25 31.25-34.15 32.4-35.05 33.85-35.05L33.85-35.05Q35.1-35.05 35.9-34.18 36.7-33.3 36.7-31.95L36.7-31.95Q36.7-30.75 35.75-29.9 34.8-29.05 33.4-29.05ZM43 0.15L43 0.15Q42.65 0.15 42.42-0.18 42.2-0.5 42.2-0.85L42.2-0.85Q42.3-1.6 42.59-1.68 42.9-1.75 43.4-1.75L43.4-1.75Q44.8-1.75 45.3-2.23 45.8-2.7 45.87-3.5 45.95-4.3 45.95-5.15L45.95-5.15 45.95-16.6Q45.95-17.5 45.87-18.28 45.8-19.05 45.3-19.53 44.8-20 43.4-20L43.4-20Q42.95-20 42.57-20.13 42.2-20.25 42.2-21L42.2-21Q42.2-21.75 43-21.9L43-21.9Q45.3-22.25 46.52-22.6 47.75-22.95 48.37-23.2 49-23.45 49.5-23.5L49.5-23.5Q49.9-23.55 50.17-23.35 50.45-23.15 50.45-22.55L50.45-22.55 50.45-19.4 50.59-19.4Q51.59-20.35 52.65-21.23 53.7-22.1 55.12-22.68 56.55-23.25 58.65-23.25L58.65-23.25Q62.05-23.25 64.05-21.2 66.05-19.15 66.05-15.8L66.05-15.8 66.05-5.15Q66.05-4.3 66.12-3.5 66.2-2.7 66.72-2.23 67.25-1.75 68.65-1.75L68.65-1.75Q69.09-1.75 69.42-1.68 69.75-1.6 69.8-0.85L69.8-0.85Q69.8-0.5 69.59-0.18 69.4 0.15 69 0.15L69 0.15Q67.55 0.05 66.32 0.03 65.09 0 63.75 0L63.75 0Q62.4 0 61.2 0.03 60 0.05 58.55 0.15L58.55 0.15Q58.2 0.15 57.97-0.18 57.75-0.5 57.75-0.85L57.75-0.85Q57.8-1.6 58.12-1.68 58.45-1.75 58.9-1.75L58.9-1.75Q60.3-1.75 60.82-2.23 61.34-2.7 61.42-3.5 61.5-4.3 61.5-5.15L61.5-5.15 61.5-15.75Q61.5-17.4 60.77-18.45 60.05-19.5 58.95-20 57.84-20.5 56.7-20.5L56.7-20.5Q55-20.5 53.7-19.88 52.4-19.25 51.59-18.45 50.8-17.65 50.5-17.05L50.5-17.05 50.5-5.15Q50.5-4.3 50.57-3.5 50.65-2.7 51.17-2.23 51.7-1.75 53.09-1.75L53.09-1.75Q53.55-1.75 53.87-1.68 54.2-1.6 54.25-0.85L54.25-0.85Q54.25-0.5 54.05-0.18 53.84 0.15 53.45 0.15L53.45 0.15Q52 0.05 50.77 0.03 49.55 0 48.2 0L48.2 0Q46.84 0 45.65 0.03 44.45 0.05 43 0.15ZM88.04 1L88.04 1Q84.39 1 81.44-0.35 78.49-1.7 76.39-4 74.29-6.3 73.19-9.22 72.09-12.15 72.09-15.35L72.09-15.35Q72.09-19.5 73.52-22.7 74.94-25.9 77.29-28.1 79.64-30.3 82.47-31.43 85.29-32.55 88.04-32.55L88.04-32.55Q91.79-32.55 94.77-31.2 97.74-29.85 99.84-27.55 101.94-25.25 103.04-22.33 104.14-19.4 104.14-16.25L104.14-16.25Q104.14-12.1 102.69-8.9 101.24-5.7 98.84-3.5 96.44-1.3 93.62-0.15 90.79 1 88.04 1ZM87.99-1.2L87.99-1.2Q91.54-1.2 93.79-3.3 96.04-5.4 97.12-8.83 98.19-12.25 98.19-16.25L98.19-16.25Q98.19-20 97.07-23.23 95.94-26.45 93.69-28.43 91.44-30.4 87.99-30.4L87.99-30.4Q84.49-30.4 82.27-28.33 80.04-26.25 78.99-22.88 77.94-19.5 77.94-15.5L77.94-15.5Q77.94-11.75 79.02-8.47 80.09-5.2 82.34-3.2 84.59-1.2 87.99-1.2ZM108.19 10.4L108.19 10.4Q107.84 10.4 107.62 10.08 107.39 9.75 107.39 9.4L107.39 9.4Q107.44 8.65 107.77 8.58 108.09 8.5 108.54 8.5L108.54 8.5Q109.89 8.5 110.42 8.03 110.94 7.55 111.04 6.75 111.14 5.95 111.14 5.1L111.14 5.1 111.14-16.6Q111.14-17.5 111.07-18.28 110.99-19.05 110.49-19.53 109.99-20 108.59-20L108.59-20Q108.14-20 107.77-20.13 107.39-20.25 107.39-21L107.39-21Q107.39-21.75 108.19-21.9L108.19-21.9Q110.49-22.25 111.72-22.6 112.94-22.95 113.57-23.2 114.19-23.45 114.69-23.5L114.69-23.5Q115.09-23.55 115.37-23.35 115.64-23.15 115.64-22.55L115.64-22.55 115.64-20.15 115.79-20.15Q117.19-21.45 119.14-22.35 121.09-23.25 122.89-23.25L122.89-23.25Q125.94-23.25 128.29-21.75 130.64-20.25 131.99-17.57 133.34-14.9 133.34-11.35L133.34-11.35Q133.34-7.75 131.69-5.05 130.04-2.35 127.44-0.88 124.84 0.6 121.89 0.6L121.89 0.6Q119.64 0.6 118.27 0.13 116.89-0.35 115.89-0.95L115.89-0.95 115.69-0.95 115.69 5.1Q115.69 5.95 115.79 6.75 115.89 7.55 116.44 8.03 116.99 8.5 118.29 8.5L118.29 8.5Q118.74 8.5 119.07 8.58 119.39 8.65 119.44 9.4L119.44 9.4Q119.44 9.75 119.24 10.08 119.04 10.4 118.64 10.4L118.64 10.4Q117.19 10.3 115.97 10.28 114.74 10.25 113.39 10.25L113.39 10.25Q112.04 10.25 110.84 10.28 109.64 10.3 108.19 10.4ZM121.49-1.1L121.49-1.1Q123.44-1.1 124.74-2.08 126.04-3.05 126.82-4.58 127.59-6.1 127.92-7.88 128.24-9.65 128.24-11.2L128.24-11.2Q128.24-13.55 127.52-15.73 126.79-17.9 125.22-19.33 123.64-20.75 121.09-20.75L121.09-20.75Q119.19-20.75 117.94-19.98 116.69-19.2 115.69-18.15L115.69-18.15 115.69-4.75Q116.24-3.45 117.72-2.27 119.19-1.1 121.49-1.1ZM146.34 0.6L146.34 0.6Q142.49 0.6 139.91-0.78 137.34-2.15 137.34-4.75L137.34-4.75Q137.34-6.2 138.21-7.1 139.09-8 140.49-8L140.49-8Q141.39-8 141.96-7.53 142.54-7.05 142.54-6.85L142.54-6.85Q142.54-6.7 141.96-6.18 141.39-5.65 141.39-4.5L141.39-4.5Q141.39-3.1 142.71-2.18 144.04-1.25 146.74-1.25L146.74-1.25Q149.09-1.25 150.41-2.27 151.74-3.3 151.74-5.15L151.74-5.15Q151.74-6.65 150.76-7.48 149.79-8.3 148.26-8.8 146.74-9.3 145.01-9.8 143.29-10.3 141.74-11.05 140.19-11.8 139.21-13.13 138.24-14.45 138.24-16.65L138.24-16.65Q138.24-18.9 139.59-20.35 140.94-21.8 143.04-22.53 145.14-23.25 147.29-23.25L147.29-23.25Q149.14-23.25 150.79-22.73 152.44-22.2 153.51-21.15 154.59-20.1 154.59-18.5L154.59-18.5Q154.59-17.25 153.79-16.25 152.99-15.25 151.59-15.25L151.59-15.25Q150.69-15.25 150.11-15.73 149.54-16.2 149.54-16.4L149.54-16.4Q149.54-16.5 149.91-16.78 150.29-17.05 150.64-17.53 150.99-18 150.99-18.75L150.99-18.75Q150.89-20.2 149.59-20.9 148.29-21.6 146.69-21.6L146.69-21.6Q144.94-21.6 143.44-20.75 141.94-19.9 141.94-18.3L141.94-18.3Q141.94-16.85 142.56-16.05 143.19-15.25 144.56-14.68 145.94-14.1 148.14-13.4L148.14-13.4Q150.34-12.7 152.01-11.95 153.69-11.2 154.61-9.98 155.54-8.75 155.54-6.65L155.54-6.65Q155.54-4.55 154.34-2.9 153.14-1.25 151.06-0.33 148.99 0.6 146.34 0.6ZM158.39 0.15L158.39 0.15Q157.89 0.15 157.69-0.2 157.49-0.55 157.49-0.95L157.49-0.95Q157.54-1.8 157.89-1.9 158.24-2 158.74-2L158.74-2Q160.04-2 160.84-2.3 161.64-2.6 162.36-3.35 163.09-4.1 163.99-5.4L163.99-5.4 171.24-15.7 164.84-25.75Q163.59-27.65 162.44-28.48 161.29-29.3 159.69-29.65L159.69-29.65Q158.99-29.8 158.71-29.9 158.44-30 158.44-30.8L158.44-30.8Q158.44-31.65 159.04-31.73 159.64-31.8 160.44-31.8L160.44-31.8Q162.79-31.8 164.46-31.3 166.14-30.8 167.46-29.65 168.79-28.5 170.09-26.6L170.09-26.6 174.19-19.9 179.14-27.1Q180.24-28.75 179.46-29.15 178.69-29.55 176.94-29.55L176.94-29.55Q176.44-29.55 176.09-29.65 175.74-29.75 175.69-30.6L175.69-30.6Q175.69-31 175.89-31.35 176.09-31.7 176.54-31.7L176.54-31.7Q178.14-31.65 179.31-31.6 180.49-31.55 181.99-31.55L181.99-31.55Q183.49-31.55 184.46-31.6 185.44-31.65 187.04-31.7L187.04-31.7Q187.54-31.7 187.74-31.35 187.94-31 187.94-30.6L187.94-30.6Q187.89-29.75 187.56-29.65 187.24-29.55 186.69-29.55L186.69-29.55Q185.44-29.55 184.59-29.25 183.74-28.95 183.04-28.2 182.34-27.45 181.44-26.15L181.44-26.15 175.59-17.85 184.29-5.45Q185.14-4.2 186.16-3.1 187.19-2 188.84-2L188.84-2Q189.39-2 189.71-1.9 190.04-1.8 190.09-0.95L190.09-0.95Q190.09-0.55 189.89-0.2 189.69 0.15 189.24 0.15L189.24 0.15Q187.64 0.05 186.19 0.03 184.74 0 183.24 0L183.24 0Q180.39 0 177.14 0.15L177.14 0.15Q176.64 0.15 176.44-0.2 176.24-0.55 176.24-0.95L176.24-0.95Q176.29-1.8 176.64-1.9 176.99-2 177.49-2L177.49-2Q178.99-2 179.39-2.75 179.79-3.5 179.09-4.45L179.09-4.45 172.69-13.6 166.29-4.45Q165.19-2.85 165.99-2.43 166.79-2 168.49-2L168.49-2Q169.04-2 169.36-1.9 169.69-1.8 169.74-0.95L169.74-0.95Q169.74-0.55 169.54-0.2 169.34 0.15 168.89 0.15L168.89 0.15Q167.29 0.05 166.11 0.03 164.94 0 163.44 0L163.44 0Q161.94 0 160.96 0.03 159.99 0.05 158.39 0.15Z" opacity="1" transform="matrix(1,0,0,1,0,0)" fill="#fbfbfb" class="wordmark-text-0" data-fill-palette-color="primary" id="text-0"></path></svg></g></svg></g><g transform="matrix(1,0,0,1,163.310208,118.22387246173982)"><svg viewBox="0 0 232.209792 10.758558595228251" height="10.758558595228251" width="232.209792"><g transform="matrix(1,0,0,1,0,0)"><svg width="232.209792" viewBox="4.49 -36.01 1003.74 46.51" height="10.758558595228251" data-palette-color="#fbfbfb"><path d="M32.15-26.49L32.15-22.51Q32.15-15.19 25.9-14.16L25.9-14.16 32.5 0 26.95 0 20.46-13.99 9.5-13.99 9.5 0 4.49 0 4.49-35.01 23.66-35.01Q32.15-35.01 32.15-26.49L32.15-26.49ZM9.5-30L9.5-18.99 23.39-18.99Q25.39-18.99 26.27-19.87 27.15-20.75 27.15-22.75L27.15-22.75 27.15-26.25Q27.15-28.25 26.27-29.13 25.39-30 23.39-30L23.39-30 9.5-30ZM62.01-21.19L62.01-10.55 44.8-10.55 44.8-4.81 62.01-4.81 62.01 0 44.8 0Q43.82 0 42.94-0.38 42.06-0.76 41.42-1.4 40.77-2.05 40.39-2.93 40.01-3.81 40.01-4.81L40.01-4.81 40.01-21.19Q40.01-22.19 40.39-23.07 40.77-23.95 41.42-24.6 42.06-25.24 42.94-25.62 43.82-26 44.8-26L44.8-26 57.2-26Q58.2-26 59.08-25.62 59.96-25.24 60.61-24.6 61.25-23.95 61.63-23.07 62.01-22.19 62.01-21.19L62.01-21.19ZM57.2-21.19L44.8-21.19 44.8-15.36 57.2-15.36 57.2-21.19ZM82.42 0L77.41 0 67.01-26 72.02-26 79.9-5.76 87.81-26 92.82-26 82.42 0ZM120.31-21.19L120.31-4.81Q120.31-3.81 119.93-2.93 119.55-2.05 118.9-1.4 118.25-0.76 117.39-0.38 116.52 0 115.52 0L115.52 0 102.6 0Q101.63 0 100.75-0.38 99.87-0.76 99.22-1.4 98.58-2.05 98.2-2.93 97.82-3.81 97.82-4.81L97.82-4.81 97.82-21.19Q97.82-22.19 98.2-23.07 98.58-23.95 99.22-24.6 99.87-25.24 100.75-25.62 101.63-26 102.6-26L102.6-26 115.52-26Q116.52-26 117.39-25.62 118.25-25.24 118.9-24.6 119.55-23.95 119.93-23.07 120.31-22.19 120.31-21.19L120.31-21.19ZM115.52-21.19L102.6-21.19 102.6-4.81 115.52-4.81 115.52-21.19ZM128.31-36.01L133.1-36.01 133.1 0 128.31 0 128.31-36.01ZM141.1-4.81L141.1-26 145.89-26 145.89-4.81 159.29-4.81 159.29-26 164.1-26 164.1 0 159.29 0 159.29-4.39Q159.22-3.49 158.8-2.69 158.39-1.88 157.74-1.28 157.09-0.68 156.26-0.34 155.43 0 154.5 0L154.5 0 145.89 0Q144.91 0 144.03-0.38 143.15-0.76 142.5-1.4 141.86-2.05 141.48-2.93 141.1-3.81 141.1-4.81L141.1-4.81ZM170.59-21.19L170.59-26 176.94-26 176.94-34.01 181.75-34.01 181.75-26 190.29-26 190.29-21.19 181.75-21.19 181.75-4.81 190.29-4.81 190.29 0 181.75 0Q180.77 0 179.89-0.38 179.01-0.76 178.35-1.4 177.69-2.05 177.32-2.93 176.94-3.81 176.94-4.81L176.94-4.81 176.94-21.19 170.59-21.19ZM198.54-26L203.35-26 203.35 0 198.54 0 198.54-26ZM198.3-31.01L198.3-36.01 203.6-36.01 203.6-31.01 198.3-31.01ZM234.09-21.19L234.09-4.81Q234.09-3.81 233.71-2.93 233.33-2.05 232.68-1.4 232.04-0.76 231.17-0.38 230.3 0 229.3 0L229.3 0 216.39 0Q215.41 0 214.53-0.38 213.65-0.76 213-1.4 212.36-2.05 211.98-2.93 211.6-3.81 211.6-4.81L211.6-4.81 211.6-21.19Q211.6-22.19 211.98-23.07 212.36-23.95 213-24.6 213.65-25.24 214.53-25.62 215.41-26 216.39-26L216.39-26 229.3-26Q230.3-26 231.17-25.62 232.04-25.24 232.68-24.6 233.33-23.95 233.71-23.07 234.09-22.19 234.09-21.19L234.09-21.19ZM229.3-21.19L216.39-21.19 216.39-4.81 229.3-4.81 229.3-21.19ZM265.09-21.19L265.09 0 260.28 0 260.28-21.19 246.88-21.19 246.88 0 242.09 0 242.09-26 246.88-26 246.88-21.41Q246.93-22.36 247.32-23.21 247.71-24.05 248.35-24.67 249-25.29 249.86-25.65 250.71-26 251.69-26L251.69-26 260.28-26Q261.28-26 262.16-25.62 263.04-25.24 263.69-24.6 264.33-23.95 264.71-23.07 265.09-22.19 265.09-21.19L265.09-21.19ZM273.34-26L278.15-26 278.15 0 273.34 0 273.34-26ZM273.1-31.01L273.1-36.01 278.39-36.01 278.39-31.01 273.1-31.01ZM285.89-21.19L285.89-26 307.39-26 307.39-24.71 293.55-4.81 307.39-4.81 307.39 0 285.4 0 285.4-1.29 299.24-21.19 285.89-21.19ZM336.4-21.19L336.4-10.55 319.18-10.55 319.18-4.81 336.4-4.81 336.4 0 319.18 0Q318.21 0 317.33-0.38 316.45-0.76 315.8-1.4 315.16-2.05 314.78-2.93 314.4-3.81 314.4-4.81L314.4-4.81 314.4-21.19Q314.4-22.19 314.78-23.07 315.16-23.95 315.8-24.6 316.45-25.24 317.33-25.62 318.21-26 319.18-26L319.18-26 331.59-26Q332.59-26 333.47-25.62 334.35-25.24 334.99-24.6 335.64-23.95 336.02-23.07 336.4-22.19 336.4-21.19L336.4-21.19ZM331.59-21.19L319.18-21.19 319.18-15.36 331.59-15.36 331.59-21.19ZM356.39-35.01L362.2-35.01 372.38-18.65 382.58-35.01 388.39-35.01 374.89-13.89 374.89 0 369.89 0 369.89-13.89 356.39-35.01ZM412.88-21.19L412.88-4.81Q412.88-3.81 412.5-2.93 412.12-2.05 411.47-1.4 410.83-0.76 409.96-0.38 409.09 0 408.09 0L408.09 0 395.18 0Q394.2 0 393.32-0.38 392.44-0.76 391.8-1.4 391.15-2.05 390.77-2.93 390.39-3.81 390.39-4.81L390.39-4.81 390.39-21.19Q390.39-22.19 390.77-23.07 391.15-23.95 391.8-24.6 392.44-25.24 393.32-25.62 394.2-26 395.18-26L395.18-26 408.09-26Q409.09-26 409.96-25.62 410.83-25.24 411.47-24.6 412.12-23.95 412.5-23.07 412.88-22.19 412.88-21.19L412.88-21.19ZM408.09-21.19L395.18-21.19 395.18-4.81 408.09-4.81 408.09-21.19ZM420.88-4.81L420.88-26 425.67-26 425.67-4.81 439.07-4.81 439.07-26 443.88-26 443.88 0 439.07 0 439.07-4.39Q439-3.49 438.58-2.69 438.17-1.88 437.52-1.28 436.87-0.68 436.04-0.34 435.21 0 434.29 0L434.29 0 425.67 0Q424.69 0 423.81-0.38 422.93-0.76 422.29-1.4 421.64-2.05 421.26-2.93 420.88-3.81 420.88-4.81L420.88-4.81ZM466.58-21.19L456.67-21.19 456.67 0 451.89 0 451.89-26 456.67-26 456.67-21.41Q456.72-22.36 457.11-23.21 457.5-24.05 458.15-24.67 458.8-25.29 459.65-25.65 460.5-26 461.48-26L461.48-26 466.58-26Q467.58-26 468.45-25.62 469.32-25.24 469.98-24.6 470.64-23.95 471.01-23.07 471.39-22.19 471.39-21.19L471.39-21.19 471.39-16.8 466.58-16.8 466.58-21.19ZM492.85 0L492.85-35.01 518.36-35.01 518.36-30 497.85-30 497.85-20 515.36-20 515.36-14.99 497.85-14.99 497.85 0 492.85 0ZM525.1-26L529.91-26 529.91 0 525.1 0 525.1-26ZM524.85-31.01L524.85-36.01 530.15-36.01 530.15-31.01 524.85-31.01ZM561.15-21.19L561.15 0 556.34 0 556.34-21.19 542.94-21.19 542.94 0 538.16 0 538.16-26 542.94-26 542.94-21.41Q542.99-22.36 543.38-23.21 543.77-24.05 544.42-24.67 545.06-25.29 545.92-25.65 546.77-26 547.75-26L547.75-26 556.34-26Q557.34-26 558.22-25.62 559.1-25.24 559.75-24.6 560.4-23.95 560.78-23.07 561.15-22.19 561.15-21.19L561.15-21.19ZM569.16-4.81L569.16-11.35Q569.16-12.35 569.54-13.22 569.92-14.09 570.56-14.75 571.21-15.41 572.09-15.78 572.97-16.16 573.94-16.16L573.94-16.16 586.35-16.16 586.35-21.19 570.65-21.19 570.65-26 586.35-26Q587.35-26 588.23-25.62 589.11-25.24 589.75-24.6 590.4-23.95 590.78-23.07 591.16-22.19 591.16-21.19L591.16-21.19 591.16 0 586.35 0 586.35-4.39Q586.27-3.49 585.86-2.69 585.44-1.88 584.8-1.28 584.15-0.68 583.32-0.34 582.49 0 581.56 0L581.56 0 573.94 0Q572.97 0 572.09-0.38 571.21-0.76 570.56-1.4 569.92-2.05 569.54-2.93 569.16-3.81 569.16-4.81L569.16-4.81ZM573.94-11.35L573.94-4.81 586.35-4.81 586.35-11.35 573.94-11.35ZM622.16-21.19L622.16 0 617.35 0 617.35-21.19 603.95-21.19 603.95 0 599.16 0 599.16-26 603.95-26 603.95-21.41Q604-22.36 604.39-23.21 604.78-24.05 605.42-24.67 606.07-25.29 606.92-25.65 607.78-26 608.76-26L608.76-26 617.35-26Q618.35-26 619.23-25.62 620.11-25.24 620.76-24.6 621.4-23.95 621.78-23.07 622.16-22.19 622.16-21.19L622.16-21.19ZM647.35-21.19L634.95-21.19 634.95-4.81 647.35-4.81 647.35-9.2 652.16-9.2 652.16-4.81Q652.16-3.81 651.78-2.93 651.4-2.05 650.76-1.4 650.11-0.76 649.23-0.38 648.35 0 647.35 0L647.35 0 634.95 0Q633.97 0 633.09-0.38 632.22-0.76 631.57-1.4 630.92-2.05 630.54-2.93 630.16-3.81 630.16-4.81L630.16-4.81 630.16-21.19Q630.16-22.19 630.54-23.07 630.92-23.95 631.57-24.6 632.22-25.24 633.09-25.62 633.97-26 634.95-26L634.95-26 647.35-26Q648.35-26 649.23-25.62 650.11-25.24 650.76-24.6 651.4-23.95 651.78-23.07 652.16-22.19 652.16-21.19L652.16-21.19 652.16-16.8 647.35-16.8 647.35-21.19ZM660.41-26L665.22-26 665.22 0 660.41 0 660.41-26ZM660.17-31.01L660.17-36.01 665.46-36.01 665.46-31.01 660.17-31.01ZM673.47-4.81L673.47-11.35Q673.47-12.35 673.85-13.22 674.23-14.09 674.87-14.75 675.52-15.41 676.4-15.78 677.28-16.16 678.26-16.16L678.26-16.16 690.66-16.16 690.66-21.19 674.96-21.19 674.96-26 690.66-26Q691.66-26 692.54-25.62 693.42-25.24 694.06-24.6 694.71-23.95 695.09-23.07 695.47-22.19 695.47-21.19L695.47-21.19 695.47 0 690.66 0 690.66-4.39Q690.58-3.49 690.17-2.69 689.75-1.88 689.11-1.28 688.46-0.68 687.63-0.34 686.8 0 685.87 0L685.87 0 678.26 0Q677.28 0 676.4-0.38 675.52-0.76 674.87-1.4 674.23-2.05 673.85-2.93 673.47-3.81 673.47-4.81L673.47-4.81ZM678.26-11.35L678.26-4.81 690.66-4.81 690.66-11.35 678.26-11.35ZM703.47-36.01L708.26-36.01 708.26 0 703.47 0 703.47-36.01ZM761.74-30L761.74-5Q761.74-3.98 761.35-3.06 760.96-2.15 760.28-1.46 759.6-0.78 758.68-0.39 757.76 0 756.74 0L756.74 0 736.74 0Q735.72 0 734.8-0.39 733.89-0.78 733.2-1.46 732.52-2.15 732.13-3.06 731.74-3.98 731.74-5L731.74-5 731.74-30Q731.74-31.03 732.13-31.95 732.52-32.86 733.2-33.53 733.89-34.2 734.8-34.61 735.72-35.01 736.74-35.01L736.74-35.01 756.74-35.01Q757.76-35.01 758.68-34.61 759.6-34.2 760.28-33.53 760.96-32.86 761.35-31.95 761.74-31.03 761.74-30L761.74-30ZM756.74-30L736.74-30 736.74-5 756.74-5 756.74-30ZM793.24-21.19L793.24-4.81Q793.24-3.81 792.86-2.93 792.48-2.05 791.83-1.4 791.18-0.76 790.31-0.38 789.43 0 788.43 0L788.43 0 775.02 0 775.02 10.5 770.24 10.5 770.24-26 775.02-26 775.02-21.61Q775.1-22.53 775.51-23.33 775.93-24.12 776.56-24.72 777.2-25.32 778.04-25.66 778.88-26 779.83-26L779.83-26 788.43-26Q789.43-26 790.31-25.62 791.18-25.24 791.83-24.6 792.48-23.95 792.86-23.07 793.24-22.19 793.24-21.19L793.24-21.19ZM775.02-4.81L788.43-4.81 788.43-21.19 775.02-21.19 775.02-4.81ZM823.24-21.19L823.24-10.55 806.03-10.55 806.03-4.81 823.24-4.81 823.24 0 806.03 0Q805.05 0 804.17-0.38 803.29-0.76 802.64-1.4 802-2.05 801.62-2.93 801.24-3.81 801.24-4.81L801.24-4.81 801.24-21.19Q801.24-22.19 801.62-23.07 802-23.95 802.64-24.6 803.29-25.24 804.17-25.62 805.05-26 806.03-26L806.03-26 818.43-26Q819.43-26 820.31-25.62 821.19-25.24 821.83-24.6 822.48-23.95 822.86-23.07 823.24-22.19 823.24-21.19L823.24-21.19ZM818.43-21.19L806.03-21.19 806.03-15.36 818.43-15.36 818.43-21.19ZM845.94-21.19L836.03-21.19 836.03 0 831.24 0 831.24-26 836.03-26 836.03-21.41Q836.08-22.36 836.47-23.21 836.86-24.05 837.51-24.67 838.15-25.29 839.01-25.65 839.86-26 840.84-26L840.84-26 845.94-26Q846.94-26 847.81-25.62 848.67-25.24 849.33-24.6 849.99-23.95 850.37-23.07 850.75-22.19 850.75-21.19L850.75-21.19 850.75-16.8 845.94-16.8 845.94-21.19ZM856.73-4.81L856.73-11.35Q856.73-12.35 857.11-13.22 857.49-14.09 858.13-14.75 858.78-15.41 859.66-15.78 860.54-16.16 861.51-16.16L861.51-16.16 873.92-16.16 873.92-21.19 858.22-21.19 858.22-26 873.92-26Q874.92-26 875.8-25.62 876.68-25.24 877.32-24.6 877.97-23.95 878.35-23.07 878.73-22.19 878.73-21.19L878.73-21.19 878.73 0 873.92 0 873.92-4.39Q873.84-3.49 873.43-2.69 873.01-1.88 872.37-1.28 871.72-0.68 870.89-0.34 870.06 0 869.13 0L869.13 0 861.51 0Q860.54 0 859.66-0.38 858.78-0.76 858.13-1.4 857.49-2.05 857.11-2.93 856.73-3.81 856.73-4.81L856.73-4.81ZM861.51-11.35L861.51-4.81 873.92-4.81 873.92-11.35 861.51-11.35ZM885.22-21.19L885.22-26 891.57-26 891.57-34.01 896.37-34.01 896.37-26 904.92-26 904.92-21.19 896.37-21.19 896.37-4.81 904.92-4.81 904.92 0 896.37 0Q895.4 0 894.52-0.38 893.64-0.76 892.98-1.4 892.32-2.05 891.94-2.93 891.57-3.81 891.57-4.81L891.57-4.81 891.57-21.19 885.22-21.19ZM913.17-26L917.98-26 917.98 0 913.17 0 913.17-26ZM912.93-31.01L912.93-36.01 918.22-36.01 918.22-31.01 912.93-31.01ZM948.71-21.19L948.71-4.81Q948.71-3.81 948.34-2.93 947.96-2.05 947.31-1.4 946.66-0.76 945.8-0.38 944.93 0 943.93 0L943.93 0 931.01 0Q930.04 0 929.16-0.38 928.28-0.76 927.63-1.4 926.99-2.05 926.61-2.93 926.23-3.81 926.23-4.81L926.23-4.81 926.23-21.19Q926.23-22.19 926.61-23.07 926.99-23.95 927.63-24.6 928.28-25.24 929.16-25.62 930.04-26 931.01-26L931.01-26 943.93-26Q944.93-26 945.8-25.62 946.66-25.24 947.31-24.6 947.96-23.95 948.34-23.07 948.71-22.19 948.71-21.19L948.71-21.19ZM943.93-21.19L931.01-21.19 931.01-4.81 943.93-4.81 943.93-21.19ZM979.72-21.19L979.72 0 974.91 0 974.91-21.19 961.5-21.19 961.5 0 956.72 0 956.72-26 961.5-26 961.5-21.41Q961.55-22.36 961.94-23.21 962.33-24.05 962.98-24.67 963.63-25.29 964.48-25.65 965.34-26 966.31-26L966.31-26 974.91-26Q975.91-26 976.79-25.62 977.67-25.24 978.31-24.6 978.96-23.95 979.34-23.07 979.72-22.19 979.72-21.19L979.72-21.19ZM987.21-4.81L1003.42-4.81 1003.42-10.84 992.02-10.84Q991.02-10.84 990.14-11.22 989.26-11.6 988.61-12.24 987.97-12.89 987.59-13.77 987.21-14.65 987.21-15.65L987.21-15.65 987.21-21.19Q987.21-22.19 987.59-23.07 987.97-23.95 988.61-24.6 989.26-25.24 990.14-25.62 991.02-26 992.02-26L992.02-26 1007.23-26 1007.23-21.19 992.02-21.19 992.02-15.65 1003.42-15.65Q1004.42-15.65 1005.29-15.27 1006.15-14.89 1006.81-14.25 1007.47-13.6 1007.85-12.72 1008.23-11.84 1008.23-10.84L1008.23-10.84 1008.23-4.81Q1008.23-3.81 1007.85-2.93 1007.47-2.05 1006.81-1.4 1006.15-0.76 1005.29-0.38 1004.42 0 1003.42 0L1003.42 0 987.21 0 987.21-4.81Z" opacity="1" transform="matrix(1,0,0,1,0,0)" fill="#fbfbfb" class="slogan-text-1" data-fill-palette-color="secondary" id="text-1"></path></svg></g></svg></g></svg></g></svg></g><g transform="matrix(1,0,0,1,418.0993712646129,0)"><svg viewBox="0 0 178.2537197207299 178.2537197207299" height="178.2537197207299" width="178.2537197207299"><g data-palette-color="#2f76db"><rect width="48.72268339033284" height="178.2537197207299" fill="#2f76db" stroke="transparent" data-fill-palette-color="accent" x="0" fill-opacity="1"></rect><rect width="48.72268339033284" height="178.2537197207299" fill="#2f76db" stroke="transparent" data-fill-palette-color="accent" x="59.41790657357663" fill-opacity="0.75"></rect><rect width="48.72268339033284" height="178.2537197207299" fill="#2f76db" stroke="transparent" data-fill-palette-color="accent" x="118.83581314715326" fill-opacity="0.5"></rect></g></svg></g></svg></g><defs></defs></svg><rect width="395.52" height="118.22343556139279" fill="none" stroke="none" visibility="hidden"></rect></g></svg></g></svg>